<svg width="20" height="20" viewBox="0 0 20 20" fill="none" xmlns="http://www.w3.org/2000/svg">
<path fill-rule="evenodd" clip-rule="evenodd" d="M10 10C10.7956 10 11.5587 9.68393 12.1213 9.12132C12.6839 8.55871 13 7.79565 13 7C13 6.20435 12.6839 5.44129 12.1213 4.87868C11.5587 4.31607 10.7956 4 10 4C9.20435 4 8.44129 4.31607 7.87868 4.87868C7.31607 5.44129 7 6.20435 7 7C7 7.79565 7.31607 8.55871 7.87868 9.12132C8.44129 9.68393 9.20435 10 10 10ZM3 19C3 18.0807 3.18106 17.1705 3.53284 16.3212C3.88463 15.4719 4.40024 14.7003 5.05025 14.0503C5.70026 13.4002 6.47194 12.8846 7.32122 12.5328C8.1705 12.1811 9.08075 12 10 12C10.9193 12 11.8295 12.1811 12.6788 12.5328C13.5281 12.8846 14.2997 13.4002 14.9497 14.0503C15.5998 14.7003 16.1154 15.4719 16.4672 16.3212C16.8189 17.1705 17 18.0807 17 19H3Z" fill="white"/>
</svg>
