<svg width="16" height="17" viewBox="0 0 16 17" fill="none" xmlns="http://www.w3.org/2000/svg">
<path d="M11.7712 11.2829L8.94251 14.1116C8.8188 14.2354 8.6719 14.3337 8.51021 14.4007C8.34852 14.4677 8.17521 14.5022 8.00017 14.5022C7.82514 14.5022 7.65183 14.4677 7.49013 14.4007C7.32844 14.3337 7.18154 14.2354 7.05784 14.1116L4.22851 11.2829C3.48265 10.537 2.97473 9.58674 2.76896 8.55218C2.5632 7.51762 2.66883 6.44528 3.07251 5.47076C3.47618 4.49624 4.15977 3.6633 5.03683 3.07728C5.91388 2.49125 6.94502 2.17847 7.99984 2.17847C9.05466 2.17847 10.0858 2.49125 10.9629 3.07728C11.8399 3.6633 12.5235 4.49624 12.9272 5.47076C13.3308 6.44528 13.4365 7.51762 13.2307 8.55218C13.0249 9.58674 12.517 10.537 11.7712 11.2829Z" stroke="white" stroke-width="2" stroke-linecap="round" stroke-linejoin="round"/>
<path d="M10 7.51163C10 8.04206 9.78929 8.55077 9.41421 8.92584C9.03914 9.30091 8.53043 9.51163 8 9.51163C7.46957 9.51163 6.96086 9.30091 6.58579 8.92584C6.21071 8.55077 6 8.04206 6 7.51163C6 6.98119 6.21071 6.47249 6.58579 6.09741C6.96086 5.72234 7.46957 5.51163 8 5.51163C8.53043 5.51163 9.03914 5.72234 9.41421 6.09741C9.78929 6.47249 10 6.98119 10 7.51163Z" stroke="white" stroke-width="2" stroke-linecap="round" stroke-linejoin="round"/>
</svg>
