<svg width="24" height="24" viewBox="0 0 24 24" fill="none" xmlns="http://www.w3.org/2000/svg">
<g clip-path="url(#clip0_2192_67)">
<path d="M9.23101 0.173523C8.04145 0.17316 6.86347 0.407177 5.76438 0.862205C4.66529 1.31723 3.66663 1.98436 2.82544 2.82546C1.98425 3.66656 1.31703 4.66516 0.861887 5.7642C0.406747 6.86325 0.172609 8.0412 0.172852 9.23075C0.172488 10.4204 0.406536 11.5984 0.861622 12.6976C1.31671 13.7967 1.98391 14.7954 2.82511 15.6366C3.66631 16.4778 4.66502 17.1451 5.76417 17.6001C6.86332 18.0552 8.04137 18.2893 9.23101 18.2889C11.3449 18.2889 13.2861 17.5403 14.8276 16.3274L15.6353 17.1351C15.4695 17.4573 15.4107 17.8241 15.4677 18.182C15.5246 18.5399 15.6943 18.8703 15.9519 19.1252L20.1925 23.3944C20.8507 24.0535 21.9279 24.0535 22.587 23.3944L23.3947 22.5868C23.7109 22.2685 23.8884 21.8381 23.8884 21.3895C23.8884 20.9409 23.7109 20.5105 23.3947 20.1923L19.1255 15.9517C18.8691 15.6952 18.5367 15.5286 18.1778 15.4767C17.8189 15.4248 17.4529 15.4904 17.1344 15.6637L16.3267 14.856C17.3839 13.5218 18.0438 11.9167 18.2306 10.2248C18.4174 8.53276 18.1236 6.82238 17.3829 5.2897C16.6422 3.75703 15.4846 2.46413 14.0428 1.55923C12.6009 0.654328 10.9333 0.174071 9.23101 0.173523ZM9.23101 1.84614C11.1895 1.84614 13.0678 2.62416 14.4527 4.00904C15.8376 5.39393 16.6156 7.27223 16.6156 9.23075C16.6156 11.1893 15.8376 13.0676 14.4527 14.4525C13.0678 15.8373 11.1895 16.6154 9.23101 16.6154C7.27248 16.6154 5.39418 15.8373 4.00929 14.4525C2.62441 13.0676 1.84639 11.1893 1.84639 9.23075C1.84639 7.27223 2.62441 5.39393 4.00929 4.00904C5.39418 2.62416 7.27248 1.84614 9.23101 1.84614ZM4.55747 6.89445C4.06531 7.69198 3.80571 8.61113 3.80793 9.54829C3.80683 10.2116 3.93667 10.8685 4.18998 11.4815C4.44329 12.0945 4.81511 12.6514 5.2841 13.1204C5.7531 13.5894 6.31006 13.9612 6.92304 14.2145C7.53602 14.4679 8.19298 14.5977 8.85624 14.5966C9.89907 14.5954 10.9162 14.2731 11.7695 13.6735C11.5394 13.6951 11.3083 13.7044 11.0772 13.7012C10.2204 13.7034 9.37174 13.5363 8.5798 13.2095C7.78787 12.8827 7.06832 12.4026 6.46248 11.7969C5.85665 11.1911 5.37647 10.4716 5.04955 9.67973C4.72263 8.88784 4.5554 8.03916 4.55747 7.18245C4.55747 7.08645 4.55285 6.99045 4.55747 6.89445Z" fill="white"/>
</g>
<defs>
<clipPath id="clip0_2192_67">
<rect width="24" height="24" fill="white"/>
</clipPath>
</defs>
</svg>
