<svg width="24" height="24" viewBox="0 0 24 24" fill="none" xmlns="http://www.w3.org/2000/svg">
<g clip-path="url(#clip0_2001_637)">
<path d="M9.23076 0.173523C8.0412 0.17316 6.86323 0.407177 5.76414 0.862205C4.66505 1.31723 3.66638 1.98436 2.82519 2.82546C1.98401 3.66656 1.31678 4.66516 0.861643 5.7642C0.406503 6.86325 0.172365 8.0412 0.172608 9.23075C0.172244 10.4204 0.406292 11.5984 0.861378 12.6976C1.31646 13.7967 1.98367 14.7954 2.82487 15.6366C3.66607 16.4778 4.66478 17.1451 5.76393 17.6001C6.86308 18.0552 8.04113 18.2893 9.23076 18.2889C11.3446 18.2889 13.2858 17.5403 14.8274 16.3274L15.6351 17.1351C15.4692 17.4573 15.4105 17.8241 15.4674 18.182C15.5244 18.5399 15.694 18.8703 15.9517 19.1252L20.1923 23.3944C20.8505 24.0535 21.9277 24.0535 22.5868 23.3944L23.3945 22.5868C23.7107 22.2685 23.8882 21.8381 23.8882 21.3895C23.8882 20.9409 23.7107 20.5105 23.3945 20.1923L19.1252 15.9517C18.8689 15.6952 18.5364 15.5286 18.1776 15.4767C17.8187 15.4248 17.4527 15.4904 17.1341 15.6637L16.3265 14.856C17.3837 13.5218 18.0436 11.9167 18.2304 10.2248C18.4172 8.53276 18.1234 6.82238 17.3827 5.2897C16.642 3.75703 15.4844 2.46413 14.0425 1.55923C12.6007 0.654328 10.933 0.174071 9.23076 0.173523ZM9.23076 1.84614C11.1893 1.84614 13.0676 2.62416 14.4525 4.00904C15.8374 5.39393 16.6154 7.27223 16.6154 9.23075C16.6154 11.1893 15.8374 13.0676 14.4525 14.4525C13.0676 15.8373 11.1893 16.6154 9.23076 16.6154C7.27224 16.6154 5.39393 15.8373 4.00905 14.4525C2.62417 13.0676 1.84615 11.1893 1.84615 9.23075C1.84615 7.27223 2.62417 5.39393 4.00905 4.00904C5.39393 2.62416 7.27224 1.84614 9.23076 1.84614ZM4.55722 6.89445C4.06507 7.69198 3.80547 8.61113 3.80768 9.54829C3.80659 10.2116 3.93642 10.8685 4.18974 11.4815C4.44305 12.0945 4.81486 12.6514 5.28386 13.1204C5.75286 13.5894 6.30981 13.9612 6.92279 14.2145C7.53578 14.4679 8.19273 14.5977 8.85599 14.5966C9.89883 14.5954 10.916 14.2731 11.7692 13.6735C11.5391 13.6951 11.308 13.7044 11.0769 13.7012C10.2202 13.7034 9.3715 13.5363 8.57956 13.2095C7.78763 12.8827 7.06807 12.4026 6.46224 11.7969C5.8564 11.1911 5.37623 10.4716 5.04931 9.67973C4.72238 8.88784 4.55515 8.03916 4.55722 7.18245C4.55722 7.08645 4.55261 6.99045 4.55722 6.89445Z" fill="#0579FF"/>
</g>
<defs>
<clipPath id="clip0_2001_637">
<rect width="24" height="24" fill="white"/>
</clipPath>
</defs>
</svg>
